<?xml version="1.0" encoding="UTF-8" standalone="no"?>
<!DOCTYPE svg PUBLIC "-//W3C//DTD SVG 1.1//EN"
 "http://www.w3.org/Graphics/SVG/1.1/DTD/svg11.dtd">
<!-- Generated by graphviz version 2.38.0 (20140413.2041)
 -->
<!-- Title: %3 Pages: 1 -->
<svg width="1241pt" height="599pt"
 viewBox="0.00 0.00 1241.00 599.00" xmlns="http://www.w3.org/2000/svg" xmlns:xlink="http://www.w3.org/1999/xlink">
<g id="graph0" class="graph" transform="scale(1 1) rotate(0) translate(4 595)">
<title>%3</title>
<polygon fill="white" stroke="none" points="-4,4 -4,-595 1237,-595 1237,4 -4,4"/>
<!-- MultiLanguage -->
<g id="node1" class="node"><title>MultiLanguage</title>
<polygon fill="#8ccbf2" stroke="none" points="88,-7 88,-28 202,-28 202,-7 88,-7"/>
<polygon fill="none" stroke="#8ccbf2" points="88,-7 88,-28 202,-28 202,-7 88,-7"/>
<text text-anchor="start" x="91" y="-14.8" font-family="mono" font-weight="bold" font-size="14.00" fill="#c83500">MultiLanguage</text>
</g>
<!-- Thing -->
<g id="node2" class="node"><title>Thing</title>
<polygon fill="#8ccbf2" stroke="none" points="451,-566 451,-587 713,-587 713,-566 451,-566"/>
<polygon fill="none" stroke="#8ccbf2" points="451,-566 451,-587 713,-587 713,-566 451,-566"/>
<text text-anchor="start" x="561" y="-573.8" font-family="mono" font-weight="bold" font-size="14.00" fill="#c83500">Thing</text>
<polygon fill="#ddeeff" stroke="none" points="451,-545 451,-566 713,-566 713,-545 451,-545"/>
<polygon fill="none" stroke="#8ccbf2" points="451,-545 451,-566 713,-566 713,-545 451,-545"/>
<text text-anchor="start" x="454" y="-552.8" font-family="mono" font-size="14.00" fill="#c83500">@context</text>
<text text-anchor="start" x="521" y="-552.8" font-family="Times,serif" font-size="14.00"> : </text>
<text text-anchor="start" x="533" y="-552.8" font-family="Times,serif" font-style="italic" font-size="14.00">string or array</text>
<text text-anchor="start" x="615" y="-552.8" font-family="Times,serif" font-size="14.00"> </text>
<text text-anchor="start" x="619" y="-552.8" font-family="Times,serif" font-style="italic" font-size="14.00">(mandatory)</text>
<polygon fill="#ddeeff" stroke="none" points="451,-524 451,-545 713,-545 713,-524 451,-524"/>
<polygon fill="none" stroke="#8ccbf2" points="451,-524 451,-545 713,-545 713,-524 451,-524"/>
<text text-anchor="start" x="454" y="-531.8" font-family="mono" font-size="14.00" fill="#c83500">@type</text>
<text text-anchor="start" x="496" y="-531.8" font-family="Times,serif" font-size="14.00"> : </text>
<text text-anchor="start" x="508" y="-531.8" font-family="Times,serif" font-style="italic" font-size="14.00">(array of) </text>
<text text-anchor="start" x="566" y="-531.8" font-family="mono" font-size="14.00" fill="#c83500">string</text>
<polygon fill="#ddeeff" stroke="none" points="451,-503 451,-524 713,-524 713,-503 451,-503"/>
<polygon fill="none" stroke="#8ccbf2" points="451,-503 451,-524 713,-524 713,-503 451,-503"/>
<text text-anchor="start" x="454" y="-510.8" font-family="mono" font-size="14.00" fill="#c83500">id</text>
<text text-anchor="start" x="471" y="-510.8" font-family="Times,serif" font-size="14.00"> : </text>
<text text-anchor="start" x="483" y="-510.8" font-family="mono" font-size="14.00" fill="#c83500">anyURI</text>
<text text-anchor="start" x="533" y="-510.8" font-family="Times,serif" font-size="14.00"> </text>
<text text-anchor="start" x="537" y="-510.8" font-family="Times,serif" font-style="italic" font-size="14.00">(mandatory)</text>
<polygon fill="#ddeeff" stroke="none" points="451,-482 451,-503 713,-503 713,-482 451,-482"/>
<polygon fill="none" stroke="#8ccbf2" points="451,-482 451,-503 713,-503 713,-482 451,-482"/>
<text text-anchor="start" x="454" y="-489.8" font-family="mono" font-size="14.00" fill="#c83500">description</text>
<text text-anchor="start" x="545" y="-489.8" font-family="Times,serif" font-size="14.00"> : </text>
<text text-anchor="start" x="557" y="-489.8" font-family="mono" font-size="14.00" fill="#c83500">string</text>
<polygon fill="#ddeeff" stroke="none" points="451,-461 451,-482 713,-482 713,-461 451,-461"/>
<polygon fill="none" stroke="#8ccbf2" points="451,-461 451,-482 713,-482 713,-461 451,-461"/>
<text text-anchor="start" x="454" y="-468.8" font-family="mono" font-size="14.00" fill="#c83500">created</text>
<text text-anchor="start" x="512" y="-468.8" font-family="Times,serif" font-size="14.00"> : </text>
<text text-anchor="start" x="524" y="-468.8" font-family="mono" font-size="14.00" fill="#c83500">dateTime</text>
<polygon fill="#ddeeff" stroke="none" points="451,-440 451,-461 713,-461 713,-440 451,-440"/>
<polygon fill="none" stroke="#8ccbf2" points="451,-440 451,-461 713,-461 713,-440 451,-440"/>
<text text-anchor="start" x="454" y="-447.8" font-family="mono" font-size="14.00" fill="#c83500">supportLanguage</text>
<text text-anchor="start" x="578" y="-447.8" font-family="Times,serif" font-size="14.00"> : </text>
<text text-anchor="start" x="590" y="-447.8" font-family="mono" font-size="14.00" fill="#c83500">string</text>
<polygon fill="#ddeeff" stroke="none" points="451,-419 451,-440 713,-440 713,-419 451,-419"/>
<polygon fill="none" stroke="#8ccbf2" points="451,-419 451,-440 713,-440 713,-419 451,-419"/>
<text text-anchor="start" x="454" y="-426.8" font-family="mono" font-size="14.00" fill="#c83500">modified</text>
<text text-anchor="start" x="521" y="-426.8" font-family="Times,serif" font-size="14.00"> : </text>
<text text-anchor="start" x="533" y="-426.8" font-family="mono" font-size="14.00" fill="#c83500">dateTime</text>
<polygon fill="#ddeeff" stroke="none" points="451,-398 451,-419 713,-419 713,-398 451,-398"/>
<polygon fill="none" stroke="#8ccbf2" points="451,-398 451,-419 713,-419 713,-398 451,-398"/>
<text text-anchor="start" x="454" y="-405.8" font-family="mono" font-size="14.00" fill="#c83500">security</text>
<text text-anchor="start" x="521" y="-405.8" font-family="Times,serif" font-size="14.00"> : (array of) </text>
<text text-anchor="start" x="588" y="-405.8" font-family="mono" font-size="14.00" fill="#c83500">string</text>
<text text-anchor="start" x="638" y="-405.8" font-family="Times,serif" font-size="14.00"> </text>
<text text-anchor="start" x="642" y="-405.8" font-family="Times,serif" font-style="italic" font-size="14.00">(mandatory)</text>
<polygon fill="#ddeeff" stroke="none" points="451,-377 451,-398 713,-398 713,-377 451,-377"/>
<polygon fill="none" stroke="#8ccbf2" points="451,-377 451,-398 713,-398 713,-377 451,-377"/>
<text text-anchor="start" x="454" y="-384.8" font-family="mono" font-size="14.00" fill="#c83500">base</text>
<text text-anchor="start" x="488" y="-384.8" font-family="Times,serif" font-size="14.00"> : </text>
<text text-anchor="start" x="500" y="-384.8" font-family="mono" font-size="14.00" fill="#c83500">anyURI</text>
<polygon fill="#ddeeff" stroke="none" points="451,-356 451,-377 713,-377 713,-356 451,-356"/>
<polygon fill="none" stroke="#8ccbf2" points="451,-356 451,-377 713,-377 713,-356 451,-356"/>
<text text-anchor="start" x="454" y="-363.8" font-family="mono" font-size="14.00" fill="#c83500">support</text>
<text text-anchor="start" x="512" y="-363.8" font-family="Times,serif" font-size="14.00"> : </text>
<text text-anchor="start" x="524" y="-363.8" font-family="mono" font-size="14.00" fill="#c83500">string</text>
<polygon fill="#ddeeff" stroke="none" points="451,-335 451,-356 713,-356 713,-335 451,-335"/>
<polygon fill="none" stroke="#8ccbf2" points="451,-335 451,-356 713,-356 713,-335 451,-335"/>
<text text-anchor="start" x="454" y="-342.8" font-family="mono" font-size="14.00" fill="#c83500">name</text>
<text text-anchor="start" x="488" y="-342.8" font-family="Times,serif" font-size="14.00"> : </text>
<text text-anchor="start" x="500" y="-342.8" font-family="mono" font-size="14.00" fill="#c83500">string</text>
<text text-anchor="start" x="550" y="-342.8" font-family="Times,serif" font-size="14.00"> </text>
<text text-anchor="start" x="554" y="-342.8" font-family="Times,serif" font-style="italic" font-size="14.00">(mandatory)</text>
</g>
<!-- Thing&#45;&gt;MultiLanguage -->
<g id="edge7" class="edge"><title>Thing&#45;&gt;MultiLanguage</title>
<path fill="none" stroke="black" d="M442.863,-440.796C343.841,-419.311 216.634,-374.19 148,-280 96.4435,-209.246 120.993,-96.6425 136.143,-45.647"/>
<polygon fill="black" stroke="black" points="139.51,-46.6056 139.112,-36.0183 132.82,-44.5427 139.51,-46.6056"/>
<text text-anchor="start" x="118" y="-179.8" font-family="mono" font-size="14.00" fill="#c83500">descriptions</text>
<text text-anchor="middle" x="128.112" y="-39.8183" font-family="Times,serif" font-size="14.00">0..1</text>
</g>
<!-- PropertyAffordance -->
<g id="node3" class="node"><title>PropertyAffordance</title>
<polygon fill="#8ccbf2" stroke="none" points="166,-244.5 166,-265.5 325,-265.5 325,-244.5 166,-244.5"/>
<polygon fill="none" stroke="#8ccbf2" points="166,-244.5 166,-265.5 325,-265.5 325,-244.5 166,-244.5"/>
<text text-anchor="start" x="171" y="-252.3" font-family="mono" font-weight="bold" font-size="14.00" fill="#c83500">PropertyAffordance</text>
<polygon fill="#ddeeff" stroke="none" points="166,-223.5 166,-244.5 325,-244.5 325,-223.5 166,-223.5"/>
<polygon fill="none" stroke="#8ccbf2" points="166,-223.5 166,-244.5 325,-244.5 325,-223.5 166,-223.5"/>
<text text-anchor="start" x="169" y="-231.3" font-family="mono" font-size="14.00" fill="#c83500">observable</text>
<text text-anchor="start" x="252" y="-231.3" font-family="Times,serif" font-size="14.00"> : </text>
<text text-anchor="start" x="264" y="-231.3" font-family="mono" font-size="14.00" fill="#c83500">boolean</text>
</g>
<!-- Thing&#45;&gt;PropertyAffordance -->
<g id="edge4" class="edge"><title>Thing&#45;&gt;PropertyAffordance</title>
<path fill="none" stroke="black" d="M442.984,-371.516C388.875,-337.076 330.581,-299.972 291.363,-275.01"/>
<polygon fill="black" stroke="black" points="293.117,-271.978 282.802,-269.561 289.359,-277.883 293.117,-271.978"/>
<text text-anchor="start" x="345" y="-301.8" font-family="mono" font-size="14.00" fill="#c83500">properties</text>
<text text-anchor="middle" x="271.802" y="-273.361" font-family="Times,serif" font-size="14.00">0..1</text>
</g>
<!-- VersionInfo -->
<g id="node4" class="node"><title>VersionInfo</title>
<polygon fill="#8ccbf2" stroke="none" points="789,-244.5 789,-265.5 996,-265.5 996,-244.5 789,-244.5"/>
<polygon fill="none" stroke="#8ccbf2" points="789,-244.5 789,-265.5 996,-265.5 996,-244.5 789,-244.5"/>
<text text-anchor="start" x="847" y="-252.3" font-family="mono" font-weight="bold" font-size="14.00" fill="#c83500">VersionInfo</text>
<polygon fill="#ddeeff" stroke="none" points="789,-223.5 789,-244.5 996,-244.5 996,-223.5 789,-223.5"/>
<polygon fill="none" stroke="#8ccbf2" points="789,-223.5 789,-244.5 996,-244.5 996,-223.5 789,-223.5"/>
<text text-anchor="start" x="792" y="-231.3" font-family="mono" font-size="14.00" fill="#c83500">instance</text>
<text text-anchor="start" x="859" y="-231.3" font-family="Times,serif" font-size="14.00"> : </text>
<text text-anchor="start" x="871" y="-231.3" font-family="mono" font-size="14.00" fill="#c83500">string</text>
<text text-anchor="start" x="921" y="-231.3" font-family="Times,serif" font-size="14.00"> </text>
<text text-anchor="start" x="925" y="-231.3" font-family="Times,serif" font-style="italic" font-size="14.00">(mandatory)</text>
</g>
<!-- Thing&#45;&gt;VersionInfo -->
<g id="edge5" class="edge"><title>Thing&#45;&gt;VersionInfo</title>
<path fill="none" stroke="black" d="M721.131,-363.73C767.231,-331.832 815.223,-298.625 848.564,-275.555"/>
<polygon fill="black" stroke="black" points="850.908,-278.189 857.14,-269.621 846.925,-272.433 850.908,-278.189"/>
<text text-anchor="start" x="809" y="-301.8" font-family="mono" font-size="14.00" fill="#c83500">version</text>
<text text-anchor="middle" x="846.14" y="-273.421" font-family="Times,serif" font-size="14.00">0..1</text>
</g>
<!-- ActionAffordance -->
<g id="node5" class="node"><title>ActionAffordance</title>
<polygon fill="#8ccbf2" stroke="none" points="359,-254.5 359,-275.5 590,-275.5 590,-254.5 359,-254.5"/>
<polygon fill="none" stroke="#8ccbf2" points="359,-254.5 359,-275.5 590,-275.5 590,-254.5 359,-254.5"/>
<text text-anchor="start" x="408" y="-262.3" font-family="mono" font-weight="bold" font-size="14.00" fill="#c83500">ActionAffordance</text>
<polygon fill="#ddeeff" stroke="none" points="359,-233.5 359,-254.5 590,-254.5 590,-233.5 359,-233.5"/>
<polygon fill="none" stroke="#8ccbf2" points="359,-233.5 359,-254.5 590,-254.5 590,-233.5 359,-233.5"/>
<text text-anchor="start" x="362" y="-241.3" font-family="mono" font-size="14.00" fill="#c83500">safe</text>
<text text-anchor="start" x="396" y="-241.3" font-family="Times,serif" font-size="14.00"> : </text>
<text text-anchor="start" x="408" y="-241.3" font-family="mono" font-size="14.00" fill="#c83500">boolean</text>
<text text-anchor="start" x="466" y="-241.3" font-family="Times,serif" font-size="14.00"> </text>
<text text-anchor="start" x="470" y="-241.3" font-family="Times,serif" font-style="italic" font-size="14.00">(mandatory)</text>
<polygon fill="#ddeeff" stroke="none" points="359,-212.5 359,-233.5 590,-233.5 590,-212.5 359,-212.5"/>
<polygon fill="none" stroke="#8ccbf2" points="359,-212.5 359,-233.5 590,-233.5 590,-212.5 359,-212.5"/>
<text text-anchor="start" x="362" y="-220.3" font-family="mono" font-size="14.00" fill="#c83500">idempotent</text>
<text text-anchor="start" x="445" y="-220.3" font-family="Times,serif" font-size="14.00"> : </text>
<text text-anchor="start" x="457" y="-220.3" font-family="mono" font-size="14.00" fill="#c83500">boolean</text>
<text text-anchor="start" x="515" y="-220.3" font-family="Times,serif" font-size="14.00"> </text>
<text text-anchor="start" x="519" y="-220.3" font-family="Times,serif" font-style="italic" font-size="14.00">(mandatory)</text>
</g>
<!-- Thing&#45;&gt;ActionAffordance -->
<g id="edge2" class="edge"><title>Thing&#45;&gt;ActionAffordance</title>
<path fill="none" stroke="black" d="M516.995,-330.892C509.519,-316.045 502.337,-301.78 496.055,-289.304"/>
<polygon fill="black" stroke="black" points="499.061,-287.49 491.437,-280.133 492.808,-290.638 499.061,-287.49"/>
<text text-anchor="start" x="506" y="-301.8" font-family="mono" font-size="14.00" fill="#c83500">actions</text>
<text text-anchor="middle" x="480.437" y="-283.933" font-family="Times,serif" font-size="14.00">0..1</text>
</g>
<!-- EventAffordance -->
<g id="node7" class="node"><title>EventAffordance</title>
<polygon fill="#8ccbf2" stroke="none" points="624,-233.5 624,-254.5 754,-254.5 754,-233.5 624,-233.5"/>
<polygon fill="none" stroke="#8ccbf2" points="624,-233.5 624,-254.5 754,-254.5 754,-233.5 624,-233.5"/>
<text text-anchor="start" x="627" y="-241.3" font-family="mono" font-weight="bold" font-size="14.00" fill="#c83500">EventAffordance</text>
</g>
<!-- Thing&#45;&gt;EventAffordance -->
<g id="edge6" class="edge"><title>Thing&#45;&gt;EventAffordance</title>
<path fill="none" stroke="black" d="M646.403,-330.892C657.619,-308.408 668.167,-287.263 675.961,-271.639"/>
<polygon fill="black" stroke="black" points="679.107,-273.172 680.439,-262.661 672.844,-270.047 679.107,-273.172"/>
<text text-anchor="start" x="661" y="-301.8" font-family="mono" font-size="14.00" fill="#c83500">events</text>
<text text-anchor="middle" x="669.439" y="-266.461" font-family="Times,serif" font-size="14.00">0..1</text>
</g>
<!-- Link -->
<g id="node8" class="node"><title>Link</title>
<polygon fill="#f2f2f2" stroke="none" points="1029,-233.5 1029,-254.5 1069,-254.5 1069,-233.5 1029,-233.5"/>
<polygon fill="none" stroke="#8c8c8c" points="1029,-233.5 1029,-254.5 1069,-254.5 1069,-233.5 1029,-233.5"/>
<text text-anchor="start" x="1032" y="-241.3" font-family="mono" font-weight="bold" font-size="14.00">Link</text>
</g>
<!-- Thing&#45;&gt;Link -->
<g id="edge1" class="edge"><title>Thing&#45;&gt;Link</title>
<path fill="none" stroke="black" d="M721.298,-415.888C808.628,-384.873 921.411,-338.506 1012,-280 1016.7,-276.962 1021.36,-273.298 1025.7,-269.508"/>
<polygon fill="black" stroke="black" points="1028.14,-272.015 1033.11,-262.657 1023.39,-266.874 1028.14,-272.015"/>
<text text-anchor="start" x="980" y="-301.8" font-family="mono" font-size="14.00" fill="#c83500">links</text>
<text text-anchor="middle" x="1022.11" y="-266.457" font-family="Times,serif" font-size="14.00">0..*</text>
</g>
<!-- Form -->
<g id="node9" class="node"><title>Form</title>
<polygon fill="#f2f2f2" stroke="none" points="8,-7 8,-28 48,-28 48,-7 8,-7"/>
<polygon fill="none" stroke="#8c8c8c" points="8,-7 8,-28 48,-28 48,-7 8,-7"/>
<text text-anchor="start" x="11" y="-14.8" font-family="mono" font-weight="bold" font-size="14.00">Form</text>
</g>
<!-- Thing&#45;&gt;Form -->
<g id="edge3" class="edge"><title>Thing&#45;&gt;Form</title>
<path fill="none" stroke="black" d="M442.831,-442.809C337.459,-422.25 197.541,-377.4 117,-280 58.3262,-209.044 37.5803,-97.3969 30.8897,-46.2431"/>
<polygon fill="black" stroke="black" points="34.3593,-45.781 29.6667,-36.282 27.4115,-46.6341 34.3593,-45.781"/>
<text text-anchor="start" x="67" y="-179.8" font-family="mono" font-size="14.00" fill="#c83500">forms</text>
<text text-anchor="middle" x="18.6667" y="-40.082" font-family="Times,serif" font-size="14.00">0..*</text>
</g>
<!-- SecurityScheme -->
<g id="node10" class="node"><title>SecurityScheme</title>
<polygon fill="#f2f2f2" stroke="none" points="1103,-233.5 1103,-254.5 1225,-254.5 1225,-233.5 1103,-233.5"/>
<polygon fill="none" stroke="#8c8c8c" points="1103,-233.5 1103,-254.5 1225,-254.5 1225,-233.5 1103,-233.5"/>
<text text-anchor="start" x="1106" y="-241.3" font-family="mono" font-weight="bold" font-size="14.00">SecurityScheme</text>
</g>
<!-- Thing&#45;&gt;SecurityScheme -->
<g id="edge8" class="edge"><title>Thing&#45;&gt;SecurityScheme</title>
<path fill="none" stroke="black" d="M721.25,-419.207C809.635,-392.017 925.818,-353.867 1026,-313 1059.36,-299.393 1095.93,-281.353 1123.04,-267.347"/>
<polygon fill="black" stroke="black" points="1124.96,-270.294 1132.22,-262.574 1121.73,-264.084 1124.96,-270.294"/>
<text text-anchor="start" x="1057" y="-301.8" font-family="mono" font-size="14.00" fill="#c83500">securityDefinitions</text>
<text text-anchor="middle" x="1121.22" y="-266.374" font-family="Times,serif" font-size="14.00">1..1</text>
</g>
<!-- InteractionAffordance -->
<g id="node6" class="node"><title>InteractionAffordance</title>
<polygon fill="#8ccbf2" stroke="none" points="155,-132.5 155,-153.5 335,-153.5 335,-132.5 155,-132.5"/>
<polygon fill="none" stroke="#8ccbf2" points="155,-132.5 155,-153.5 335,-153.5 335,-132.5 155,-132.5"/>
<text text-anchor="start" x="158" y="-140.3" font-family="mono" font-weight="bold" font-size="14.00" fill="#c83500">InteractionAffordance</text>
<polygon fill="#ddeeff" stroke="none" points="155,-111.5 155,-132.5 335,-132.5 335,-111.5 155,-111.5"/>
<polygon fill="none" stroke="#8ccbf2" points="155,-111.5 155,-132.5 335,-132.5 335,-111.5 155,-111.5"/>
<text text-anchor="start" x="158" y="-119.3" font-family="mono" font-size="14.00" fill="#c83500">description</text>
<text text-anchor="start" x="249" y="-119.3" font-family="Times,serif" font-size="14.00"> : </text>
<text text-anchor="start" x="261" y="-119.3" font-family="mono" font-size="14.00" fill="#c83500">string</text>
<polygon fill="#ddeeff" stroke="none" points="155,-90.5 155,-111.5 335,-111.5 335,-90.5 155,-90.5"/>
<polygon fill="none" stroke="#8ccbf2" points="155,-90.5 155,-111.5 335,-111.5 335,-90.5 155,-90.5"/>
<text text-anchor="start" x="158" y="-98.3" font-family="mono" font-size="14.00" fill="#c83500">title</text>
<text text-anchor="start" x="200" y="-98.3" font-family="Times,serif" font-size="14.00"> : </text>
<text text-anchor="start" x="212" y="-98.3" font-family="mono" font-size="14.00" fill="#c83500">string</text>
</g>
<!-- PropertyAffordance&#45;&gt;InteractionAffordance -->
<g id="edge19" class="edge"><title>PropertyAffordance&#45;&gt;InteractionAffordance</title>
<path fill="none" stroke="black" d="M245,-219.216C245,-204.697 245,-185.792 245,-168.621"/>
<polygon fill="white" stroke="black" points="248.5,-168.209 245,-158.209 241.5,-168.209 248.5,-168.209"/>
</g>
<!-- DataSchema -->
<g id="node11" class="node"><title>DataSchema</title>
<polygon fill="#f2f2f2" stroke="none" points="515,-7 515,-28 604,-28 604,-7 515,-7"/>
<polygon fill="none" stroke="#8c8c8c" points="515,-7 515,-28 604,-28 604,-7 515,-7"/>
<text text-anchor="start" x="518" y="-14.8" font-family="mono" font-weight="bold" font-size="14.00">DataSchema</text>
</g>
<!-- PropertyAffordance&#45;&gt;DataSchema -->
<g id="edge18" class="edge"><title>PropertyAffordance&#45;&gt;DataSchema</title>
<path fill="none" stroke="black" d="M275.262,-219.459C335.547,-171.646 466.761,-68.0048 489,-54 496.435,-49.3182 504.58,-44.7684 512.602,-40.5827"/>
<polygon fill="white" stroke="black" points="514.237,-43.678 521.563,-36.024 511.063,-37.439 514.237,-43.678"/>
</g>
<!-- ActionAffordance&#45;&gt;InteractionAffordance -->
<g id="edge20" class="edge"><title>ActionAffordance&#45;&gt;InteractionAffordance</title>
<path fill="none" stroke="black" d="M408.071,-208.952C380.529,-194.52 348.385,-177.676 319.951,-162.776"/>
<polygon fill="white" stroke="black" points="321.342,-159.553 310.86,-158.012 318.093,-165.754 321.342,-159.553"/>
</g>
<!-- ActionAffordance&#45;&gt;DataSchema -->
<g id="edge9" class="edge"><title>ActionAffordance&#45;&gt;DataSchema</title>
<path fill="none" stroke="black" d="M499.188,-208.713C509.068,-193.715 519.752,-175.602 527,-158 542.299,-120.843 551.06,-74.9432 555.425,-46.3129"/>
<polygon fill="black" stroke="black" points="558.914,-46.6389 556.887,-36.2399 551.987,-45.6335 558.914,-46.6389"/>
<text text-anchor="start" x="548" y="-118.8" font-family="mono" font-size="14.00" fill="#c83500">output</text>
<text text-anchor="middle" x="545.887" y="-40.0399" font-family="Times,serif" font-size="14.00">0..1</text>
</g>
<!-- ActionAffordance&#45;&gt;DataSchema -->
<g id="edge10" class="edge"><title>ActionAffordance&#45;&gt;DataSchema</title>
<path fill="none" stroke="black" d="M468.049,-208.959C464.035,-175.93 462.397,-125.585 481,-87 489.755,-68.8401 505.823,-53.5346 521.109,-42.0706"/>
<polygon fill="black" stroke="black" points="523.364,-44.7614 529.47,-36.1031 519.298,-39.0638 523.364,-44.7614"/>
<text text-anchor="start" x="481" y="-118.8" font-family="mono" font-size="14.00" fill="#c83500">input</text>
<text text-anchor="middle" x="518.47" y="-39.9031" font-family="Times,serif" font-size="14.00">0..1</text>
</g>
<!-- InteractionAffordance&#45;&gt;MultiLanguage -->
<g id="edge11" class="edge"><title>InteractionAffordance&#45;&gt;MultiLanguage</title>
<path fill="none" stroke="black" d="M223.175,-86.7235C215.34,-75.616 205.959,-63.6991 196,-54 191.712,-49.8242 186.874,-45.8078 181.929,-42.0791"/>
<polygon fill="black" stroke="black" points="183.75,-39.0781 173.582,-36.0985 179.672,-44.7682 183.75,-39.0781"/>
<text text-anchor="start" x="209" y="-57.8" font-family="mono" font-size="14.00" fill="#c83500">descriptions</text>
<text text-anchor="middle" x="162.582" y="-39.8985" font-family="Times,serif" font-size="14.00">0..1</text>
</g>
<!-- InteractionAffordance&#45;&gt;MultiLanguage -->
<g id="edge12" class="edge"><title>InteractionAffordance&#45;&gt;MultiLanguage</title>
<path fill="none" stroke="black" d="M157.258,-86.6713C151.323,-81.5337 146.089,-75.6745 142,-69 137.94,-62.3728 137.08,-54.2787 137.681,-46.5498"/>
<polygon fill="black" stroke="black" points="141.18,-46.8249 139.243,-36.4086 134.261,-45.7593 141.18,-46.8249"/>
<text text-anchor="start" x="142" y="-57.8" font-family="mono" font-size="14.00" fill="#c83500">titles</text>
<text text-anchor="middle" x="150.243" y="-40.2086" font-family="Times,serif" font-size="14.00">0..1</text>
</g>
<!-- InteractionAffordance&#45;&gt;Form -->
<g id="edge13" class="edge"><title>InteractionAffordance&#45;&gt;Form</title>
<path fill="none" stroke="black" d="M146.621,-93.1716C128.001,-86.3082 109.034,-78.2367 92,-69 78.6348,-61.7527 65.1741,-51.7399 54.0696,-42.5771"/>
<polygon fill="black" stroke="black" points="56.327,-39.9024 46.4352,-36.1071 51.8012,-45.2426 56.327,-39.9024"/>
<text text-anchor="start" x="92" y="-57.8" font-family="mono" font-size="14.00" fill="#c83500">forms</text>
<text text-anchor="middle" x="57.4352" y="-39.9071" font-family="Times,serif" font-size="14.00">1..*</text>
</g>
<!-- InteractionAffordance&#45;&gt;DataSchema -->
<g id="edge14" class="edge"><title>InteractionAffordance&#45;&gt;DataSchema</title>
<path fill="none" stroke="black" d="M290.655,-86.8322C310.197,-72.6114 331.014,-58.438 342,-54 391.566,-33.9761 451.866,-25.3865 496.309,-21.7131"/>
<polygon fill="black" stroke="black" points="496.69,-25.1942 506.393,-20.9411 496.155,-18.2147 496.69,-25.1942"/>
<text text-anchor="start" x="342" y="-57.8" font-family="mono" font-size="14.00" fill="#c83500">uriVariables</text>
<text text-anchor="middle" x="495.393" y="-24.7411" font-family="Times,serif" font-size="14.00">0..1</text>
</g>
<!-- EventAffordance&#45;&gt;InteractionAffordance -->
<g id="edge21" class="edge"><title>EventAffordance&#45;&gt;InteractionAffordance</title>
<path fill="none" stroke="black" d="M651.469,-226.391C637.395,-220.378 621.143,-213.905 606,-209 522.462,-181.941 425.513,-159.453 353.132,-144.343"/>
<polygon fill="white" stroke="black" points="353.588,-140.863 343.086,-142.26 352.167,-147.717 353.588,-140.863"/>
</g>
<!-- EventAffordance&#45;&gt;DataSchema -->
<g id="edge15" class="edge"><title>EventAffordance&#45;&gt;DataSchema</title>
<path fill="none" stroke="black" d="M679.912,-226.416C664.415,-197.454 631.669,-136.99 602,-87 593.625,-72.8881 583.88,-57.4073 575.788,-44.786"/>
<polygon fill="black" stroke="black" points="578.589,-42.6715 570.23,-36.1617 572.705,-46.4634 578.589,-42.6715"/>
<text text-anchor="start" x="643" y="-118.8" font-family="mono" font-size="14.00" fill="#c83500">subscription</text>
<text text-anchor="middle" x="581.23" y="-39.9617" font-family="Times,serif" font-size="14.00">0..1</text>
</g>
<!-- EventAffordance&#45;&gt;DataSchema -->
<g id="edge16" class="edge"><title>EventAffordance&#45;&gt;DataSchema</title>
<path fill="none" stroke="black" d="M705.303,-226.164C731.852,-195.767 778.457,-131.829 747,-87 718.946,-47.0198 664.929,-30.4462 621.969,-23.6268"/>
<polygon fill="black" stroke="black" points="622.266,-20.1336 611.869,-22.1677 621.265,-27.0616 622.266,-20.1336"/>
<text text-anchor="start" x="758" y="-118.8" font-family="mono" font-size="14.00" fill="#c83500">cancellation</text>
<text text-anchor="middle" x="622.869" y="-25.9677" font-family="Times,serif" font-size="14.00">0..1</text>
</g>
<!-- EventAffordance&#45;&gt;DataSchema -->
<g id="edge17" class="edge"><title>EventAffordance&#45;&gt;DataSchema</title>
<path fill="none" stroke="black" d="M728.931,-226.43C777.594,-205.228 854.332,-170.344 862,-158 878.652,-131.196 881.28,-111.98 862,-87 833.096,-49.5505 701.428,-31.4899 621.473,-23.8343"/>
<polygon fill="black" stroke="black" points="621.791,-20.3488 611.51,-22.9084 621.144,-27.3188 621.791,-20.3488"/>
<text text-anchor="start" x="876" y="-118.8" font-family="mono" font-size="14.00" fill="#c83500">data</text>
<text text-anchor="middle" x="622.51" y="-11.7084" font-family="Times,serif" font-size="14.00">0..1</text>
</g>
</g>
</svg>
